<?xml version="1.0" encoding="UTF-8"?>
<!DOCTYPE svg PUBLIC "-//W3C//DTD SVG 1.1//EN" "http://www.w3.org/Graphics/SVG/1.1/DTD/svg11.dtd">
<!-- Creator: CorelDRAW -->
<svg xmlns="http://www.w3.org/2000/svg" xml:space="preserve" width="248px" height="248px" version="1.1" style="shape-rendering:geometricPrecision; text-rendering:geometricPrecision; image-rendering:optimizeQuality; fill-rule:evenodd; clip-rule:evenodd"
viewBox="0 0 248 248"
 xmlns:xlink="http://www.w3.org/1999/xlink"
 xmlns:xodm="http://www.corel.com/coreldraw/odm/2003">
 <defs>
  <style type="text/css">
   <![CDATA[
    .fil0 {fill:none}
    .fil1 {fill:#005AB3}
    .fil5 {fill:#005AB3}
    .fil2 {fill:#0080FF}
    .fil4 {fill:#FFF97F}
    .fil3 {fill:url(#id0)}
   ]]>
  </style>
  <linearGradient id="id0" gradientUnits="userSpaceOnUse" x1="70.97" y1="177.03" x2="177.03" y2="70.97">
   <stop offset="0" style="stop-opacity:1; stop-color:#00D9FF"/>
   <stop offset="1" style="stop-opacity:1; stop-color:#8BD0E1"/>
  </linearGradient>
 </defs>
 <g id="Слой_x0020_1">
  <metadata id="CorelCorpID_0Corel-Layer"/>
  <rect class="fil0" width="248" height="248"/>
  <rect class="fil1" x="83" width="82" height="248" rx="20.44" ry="23.44"/>
  <rect class="fil2" x="210" y="109" width="15" height="30" rx="6.06" ry="7.05"/>
  <circle class="fil2" cx="124" cy="124" r="90"/>
  <circle class="fil3" cx="124" cy="124" r="75"/>
  <path class="fil4" d="M117.42 49.29c4.18,7.06 6.58,15.31 6.58,24.11 0,26.19 -21.23,47.43 -47.42,47.43 -9.91,0 -19.11,-3.05 -26.72,-8.24 5.18,-33.88 33.01,-60.3 67.56,-63.3z"/>
  <path class="fil5" d="M79.29 184.22l44.27 -44.28c15.56,-15.55 41.01,-15.55 56.57,0l13.06 13.06c-11.34,27.02 -38.05,46 -69.19,46 -16.76,0 -32.23,-5.5 -44.71,-14.78z"/>
 </g>
</svg>
